<svg width="1200" height="1500" viewBox="0 0 1200 1500" fill="none" xmlns="http://www.w3.org/2000/svg">
  <rect width="1200" height="1500" fill="#201514"/>
  <rect width="1200" height="1500" fill="url(#paint0_radial_1_2)"/>
  <rect width="1200" height="1500" fill="url(#paint1_linear_1_2)"/>
  <path d="M0 1050C155 960 297 915 426 915C638 915 772 1061 930 1061C1012 1061 1102 1023 1200 946V1500H0V1050Z" fill="#4E2F25"/>
  <path d="M0 1197C133 1115 272 1093 417 1103C553 1113 684 1200 862 1200C996 1200 1109 1162 1200 1110V1500H0V1197Z" fill="#8E5533"/>
  <circle cx="861" cy="402" r="188" fill="#E8A55A" fill-opacity="0.9"/>
  <path d="M303 793C366 692 455 604 562 548C720 465 837 474 1007 531C788 570 652 692 528 848C459 936 395 1040 315 1099C256 1143 178 1160 80 1135C161 1031 237 900 303 793Z" fill="#D67B3C" fill-opacity="0.72"/>
  <text x="74" y="1380" fill="#F7E8D5" fill-opacity="0.88" font-family="Georgia, serif" font-size="48">Replace with your own painting photo</text>
  <defs>
    <radialGradient id="paint0_radial_1_2" cx="0" cy="0" r="1" gradientUnits="userSpaceOnUse" gradientTransform="translate(842 348) rotate(111.217) scale(1002.87 850.77)">
      <stop stop-color="#F4BF73"/>
      <stop offset="1" stop-color="#F4BF73" stop-opacity="0"/>
    </radialGradient>
    <linearGradient id="paint1_linear_1_2" x1="600" y1="0" x2="600" y2="1500" gradientUnits="userSpaceOnUse">
      <stop stop-color="#3B221B" stop-opacity="0"/>
      <stop offset="1" stop-color="#120D0C"/>
    </linearGradient>
  </defs>
</svg>
